<svg version="1.1" id="Layer_1" xmlns="http://www.w3.org/2000/svg" xmlns:xlink="http://www.w3.org/1999/xlink" x="0px" y="0px"
	 width="100%" viewBox="0 0 958 296" enable-background="new 0 0 958 296" xml:space="preserve">
<path  opacity="0.000000" stroke="none"
	d="
M641.000000,297.000000
	C427.333344,297.000000 214.166672,297.000000 1.000000,297.000000
	C1.000000,198.333328 1.000000,99.666664 1.000000,1.000000
	C320.333344,1.000000 639.666687,1.000000 959.000000,1.000000
	C959.000000,99.666664 959.000000,198.333328 959.000000,297.000000
	C853.166687,297.000000 747.333313,297.000000 641.000000,297.000000
M764.002563,187.873978
	C766.543945,189.159058 769.283752,191.769226 771.581299,191.425278
	C775.222229,190.880188 777.126953,187.881989 777.108887,183.416763
	C776.930054,139.161469 777.000366,94.905159 776.999451,50.649136
	C776.999390,49.484585 777.472595,47.908714 776.895630,47.233433
	C775.239563,45.295254 773.408997,42.892315 771.178101,42.213959
	C768.367310,41.359272 764.662720,41.213680 763.211182,46.243477
	C763.138977,46.734451 763.003662,47.225418 763.003540,47.716408
	C762.995911,93.030083 762.991272,138.343765 763.041931,183.657379
	C763.043274,184.823608 763.658630,185.989136 764.002563,187.873978
M822.440674,191.889404
	C841.771484,191.926315 861.102234,191.974197 880.433044,191.963806
	C881.289795,191.963318 882.146240,191.431381 883.895691,191.023453
	C893.394897,191.342087 901.666443,187.753174 909.673340,183.119293
	C919.288879,177.554413 927.075745,169.408203 931.594177,159.991119
	C942.080994,138.135300 943.694763,114.720627 937.508118,91.157677
	C933.380981,75.438782 927.210876,61.260616 912.025696,52.055138
	C901.666321,45.775108 891.002747,42.392319 879.343811,42.118153
	C860.708984,41.679935 842.056213,42.038368 823.411316,41.967209
	C819.795715,41.953415 817.394836,43.108978 816.133789,47.382618
	C816.089844,92.923531 816.041870,138.464447 816.039124,184.005341
	C816.039062,184.683990 816.597961,185.362656 816.982727,186.781754
	C818.655212,188.237869 820.327637,189.693985 822.440674,191.889404
M439.383423,163.099747
	C436.948486,161.740372 434.470062,160.452881 432.085785,159.009842
	C417.900360,150.424362 416.981384,128.643250 427.936188,118.332832
	C436.071411,110.676086 445.790070,107.846680 456.176575,107.136986
	C473.644135,105.943459 488.965118,111.653671 501.443298,124.073799
	C504.588165,127.203995 507.417542,127.934822 510.983246,125.447319
	C515.233765,122.482079 516.253967,119.194672 513.881592,114.794838
	C509.965088,107.531258 503.523529,102.734764 496.377350,99.253525
	C484.434601,93.435677 471.829559,90.949135 458.304474,91.376427
	C445.923065,91.767609 434.259949,94.117714 424.065155,100.726891
	C409.742737,110.011993 402.707336,123.536125 403.942230,141.033096
	C404.638062,150.892227 407.642365,159.633942 414.426666,166.924072
	C424.466309,177.712265 437.984772,182.063004 451.243500,187.031464
	C462.875092,191.390137 474.822845,195.322601 485.708923,201.162216
	C505.648865,211.858612 505.950745,240.426910 482.798859,251.058273
	C465.833740,258.848694 448.944824,257.758026 432.156128,250.573288
	C424.277435,247.201614 417.919830,241.758865 412.007721,235.617172
	C407.866394,231.315033 402.946350,231.481262 399.145386,235.360962
	C395.743988,238.832748 395.730499,243.833862 400.158661,247.470459
	C407.371918,253.394318 414.585999,259.655914 422.736115,264.030457
	C440.276367,273.445068 459.384949,273.996887 478.333374,269.625824
	C493.917572,266.030853 506.858704,257.901978 513.834473,242.467789
	C517.818298,233.653503 517.137695,224.605942 516.129211,215.313950
	C515.108765,205.911255 510.748871,198.338760 504.348785,192.078171
	C497.340424,185.222549 488.414368,181.224503 479.200317,177.924255
	C466.098480,173.231522 453.073120,168.325500 439.383423,163.099747
M47.305969,175.997238
	C47.490566,175.022476 47.767498,174.055115 47.846176,173.071884
	C49.549526,151.785919 58.340130,134.181870 75.422173,121.161858
	C92.008621,108.519592 110.913765,105.421120 131.160080,108.570732
	C142.366867,110.314110 152.459732,114.844635 162.179611,120.495956
	C163.797165,121.436440 166.245087,121.649200 168.129700,121.280411
	C171.770065,120.568039 174.109543,117.436134 173.723297,114.206879
	C173.381454,111.348709 171.447647,107.736618 169.084641,106.212357
	C148.229889,92.760033 125.196655,88.781792 101.046043,93.144333
	C74.246849,97.985313 54.111454,112.807625 41.071007,136.834732
	C30.102316,157.044571 27.764494,178.684662 32.066479,200.958160
	C38.288986,233.175125 56.948002,255.348587 87.705978,266.978973
	C102.511276,272.577271 118.015083,273.115265 133.428543,270.813293
	C146.472656,268.865143 158.892487,264.365082 169.902161,256.865295
	C171.880875,255.517395 173.492279,252.505539 173.781204,250.083923
	C174.149811,246.994537 172.375000,244.499329 169.056473,242.874741
	C164.530640,240.659149 161.245850,243.097168 158.043579,245.076065
	C141.417801,255.350296 123.459801,258.323822 104.450409,254.936203
	C87.430412,251.903122 73.607849,243.414032 62.861229,229.697647
	C50.635082,214.092865 46.577927,196.207932 47.305969,175.997238
M367.000000,130.500168
	C367.000000,123.444183 367.000000,116.388206 367.000000,109.332222
	C362.057648,114.012756 358.498230,119.228424 354.397522,123.976608
	C350.406494,128.597748 348.300690,133.421814 348.902618,139.699631
	C349.643646,147.428116 349.926941,155.224548 349.954315,162.993210
	C350.064575,194.298798 349.999969,225.605026 350.000061,256.911011
	C350.000092,266.288971 352.512726,269.963531 358.947876,269.997559
	C364.903198,270.029053 367.000000,266.746063 367.000000,257.390106
	C367.000031,215.426758 367.000000,173.463409 367.000000,130.500168
M220.000000,209.500000
	C220.000000,186.361603 219.813141,163.220703 220.123795,140.086472
	C220.207535,133.852371 219.158005,128.584488 215.018661,123.763916
	C211.061432,119.155403 207.648636,114.079384 203.996552,109.208855
	C203.664368,109.406967 203.332184,109.605072 203.000000,109.803185
	C203.000000,111.605362 203.000000,113.407532 203.000000,115.209709
	C203.000000,155.660294 203.015442,196.110886 202.961899,236.561417
	C202.958664,239.001282 202.105530,241.447876 202.165680,243.878525
	C202.341125,250.967682 202.371796,258.102112 203.262970,265.116699
	C203.823151,269.526093 207.800430,270.482941 211.725067,269.940552
	C215.547180,269.412354 218.790115,267.762054 218.972153,263.257538
	C219.386719,252.998993 219.754303,242.736832 219.970123,232.472534
	C220.124039,225.151382 220.000000,217.824387 220.000000,209.500000
M297.010864,176.474884
	C290.548737,185.968597 283.600098,195.178970 277.834839,205.078522
	C275.054688,209.852325 276.390106,215.613922 284.227386,216.029968
	C290.914917,216.384964 293.120972,211.022705 295.975098,206.830200
	C308.621613,188.253372 321.128357,169.579956 333.537567,150.843399
	C343.590179,135.665054 353.438751,120.351486 363.362244,105.087784
	C366.074951,100.915215 365.391418,96.888535 361.697113,94.911728
	C357.800323,92.826561 352.667084,93.928581 350.190338,97.528664
	C347.682190,101.174278 345.355408,104.944122 342.883759,108.615494
	C327.769684,131.065872 312.637024,153.503708 297.010864,176.474884
M281.857208,190.362259
	C281.529633,189.445953 281.358521,188.430862 280.851562,187.627808
	C268.166504,167.534805 255.782822,147.239456 242.598511,127.478500
	C235.329147,116.583008 226.847092,106.476944 218.615097,96.253883
	C215.678711,92.607292 211.373825,92.777283 207.211304,95.995338
	C203.645920,98.751747 204.794724,101.998314 206.640091,105.179489
	C207.214096,106.168953 207.873825,107.109093 208.503357,108.065865
	C223.727005,131.202499 238.921204,154.358597 254.192062,177.464035
	C260.058441,186.340118 266.100037,195.100372 272.543671,204.625778
	C275.790192,199.680618 278.640198,195.339386 281.857208,190.362259
M604.481445,67.964653
	C602.460815,71.666107 600.528564,75.419304 598.400391,79.057869
	C594.431824,85.842728 590.272339,92.516312 586.329529,99.315750
	C576.819092,115.716492 567.148254,132.031357 558.012451,148.639633
	C552.368896,158.899277 543.705444,167.870453 545.763977,181.494461
	C547.093384,190.293045 554.926208,200.728607 563.793213,201.967636
	C576.258423,203.709457 585.827271,198.799454 592.135681,187.563629
	C596.600830,179.610886 601.100647,171.674850 605.744263,163.825592
	C614.593079,148.868256 623.732605,134.080399 632.423523,119.032799
	C641.940796,102.554428 650.294495,85.344322 660.674500,69.445000
	C667.578369,58.870338 662.578857,40.816715 653.057861,35.570522
	C641.874512,29.408401 628.172668,30.186504 621.091187,40.220455
	C615.037415,48.798168 610.243530,58.264973 604.481445,67.964653
M672.075867,97.620956
	C667.368713,106.120293 663.068726,114.882874 657.806702,123.023575
	C654.472473,128.182037 654.127625,131.569626 657.756714,137.178543
	C668.430054,153.674759 678.356934,170.689911 687.840149,187.907242
	C693.865967,198.847305 702.566162,202.988617 714.489136,202.007919
	C722.688721,201.333481 733.081360,191.453720 734.045105,183.758438
	C735.290344,173.815842 732.408875,165.064682 727.295898,156.769577
	C720.916870,146.420486 714.461365,136.113983 708.313782,125.627968
	C700.394409,112.119713 692.757141,98.446190 684.976807,84.856171
	C682.809753,81.070885 681.253723,81.081360 679.035767,84.979332
	C676.780640,88.942436 674.674927,92.990532 672.075867,97.620956
z"/>
<path fill="#F7AA4D" opacity="1.000000" stroke="none"
	d="
M439.699249,163.305176
	C453.073120,168.325500 466.098480,173.231522 479.200317,177.924255
	C488.414368,181.224503 497.340424,185.222549 504.348785,192.078171
	C510.748871,198.338760 515.108765,205.911255 516.129211,215.313950
	C517.137695,224.605942 517.818298,233.653503 513.834473,242.467789
	C506.858704,257.901978 493.917572,266.030853 478.333374,269.625824
	C459.384949,273.996887 440.276367,273.445068 422.736115,264.030457
	C414.585999,259.655914 407.371918,253.394318 400.158661,247.470459
	C395.730499,243.833862 395.743988,238.832748 399.145386,235.360962
	C402.946350,231.481262 407.866394,231.315033 412.007721,235.617172
	C417.919830,241.758865 424.277435,247.201614 432.156128,250.573288
	C448.944824,257.758026 465.833740,258.848694 482.798859,251.058273
	C505.950745,240.426910 505.648865,211.858612 485.708923,201.162216
	C474.822845,195.322601 462.875092,191.390137 451.243500,187.031464
	C437.984772,182.063004 424.466309,177.712265 414.426666,166.924072
	C407.642365,159.633942 404.638062,150.892227 403.942230,141.033096
	C402.707336,123.536125 409.742737,110.011993 424.065155,100.726891
	C434.259949,94.117714 445.923065,91.767609 458.304474,91.376427
	C471.829559,90.949135 484.434601,93.435677 496.377350,99.253525
	C503.523529,102.734764 509.965088,107.531258 513.881592,114.794838
	C516.253967,119.194672 515.233765,122.482079 510.983246,125.447319
	C507.417542,127.934822 504.588165,127.203995 501.443298,124.073799
	C488.965118,111.653671 473.644135,105.943459 456.176575,107.136986
	C445.790070,107.846680 436.071411,110.676086 427.936188,118.332832
	C416.981384,128.643250 417.900360,150.424362 432.085785,159.009842
	C434.470062,160.452881 436.948486,161.740372 439.699249,163.305176
z"/>
<path fill="#F7AA4E" opacity="1.000000" stroke="none"
	d="
M47.175442,176.442001
	C46.577927,196.207932 50.635082,214.092865 62.861229,229.697647
	C73.607849,243.414032 87.430412,251.903122 104.450409,254.936203
	C123.459801,258.323822 141.417801,255.350296 158.043579,245.076065
	C161.245850,243.097168 164.530640,240.659149 169.056473,242.874741
	C172.375000,244.499329 174.149811,246.994537 173.781204,250.083923
	C173.492279,252.505539 171.880875,255.517395 169.902161,256.865295
	C158.892487,264.365082 146.472656,268.865143 133.428543,270.813293
	C118.015083,273.115265 102.511276,272.577271 87.705978,266.978973
	C56.948002,255.348587 38.288986,233.175125 32.066479,200.958160
	C27.764494,178.684662 30.102316,157.044571 41.071007,136.834732
	C54.111454,112.807625 74.246849,97.985313 101.046043,93.144333
	C125.196655,88.781792 148.229889,92.760033 169.084641,106.212357
	C171.447647,107.736618 173.381454,111.348709 173.723297,114.206879
	C174.109543,117.436134 171.770065,120.568039 168.129700,121.280411
	C166.245087,121.649200 163.797165,121.436440 162.179611,120.495956
	C152.459732,114.844635 142.366867,110.314110 131.160080,108.570732
	C110.913765,105.421120 92.008621,108.519592 75.422173,121.161858
	C58.340130,134.181870 49.549526,151.785919 47.846176,173.071884
	C47.767498,174.055115 47.490566,175.022476 47.175442,176.442001
z"/>
<path fill="#00C6B0" opacity="1.000000" stroke="none"
	d="
M816.895203,46.959377
	C817.394836,43.108978 819.795715,41.953415 823.411316,41.967209
	C842.056213,42.038368 860.708984,41.679935 879.343811,42.118153
	C891.002747,42.392319 901.666321,45.775108 912.025696,52.055138
	C927.210876,61.260616 933.380981,75.438782 937.508118,91.157677
	C943.694763,114.720627 942.080994,138.135300 931.594177,159.991119
	C927.075745,169.408203 919.288879,177.554413 909.673340,183.119293
	C901.666443,187.753174 893.394897,191.342087 882.983948,191.024094
	C862.048157,191.066528 842.024109,191.108322 822.000061,191.150116
	C820.327637,189.693985 818.655212,188.237869 816.987244,185.942703
	C816.959595,139.055557 816.927368,93.007469 816.895203,46.959377
M832.011780,177.966492
	C847.336731,177.922485 862.661621,177.878494 878.827026,177.975189
	C881.076782,177.644440 883.330078,177.335739 885.575806,176.979263
	C897.540894,175.079895 907.353271,168.983810 914.532898,159.665314
	C921.931030,150.063339 924.950806,138.205490 925.799683,126.339066
	C927.263672,105.872963 924.737610,85.904427 911.422791,69.165520
	C905.319946,61.493355 897.067139,55.525154 886.948792,55.187759
	C868.326355,54.566784 849.666199,55.075695 830.321289,55.561161
	C830.216858,56.212532 830.021362,56.863869 830.021057,57.515285
	C830.004822,96.442970 829.995117,135.370667 830.049011,174.298279
	C830.050659,175.476181 830.732178,176.653152 832.011780,177.966492
z"/>
<path fill="#F7AA4D" opacity="1.000000" stroke="none"
	d="
M367.000000,131.000122
	C367.000000,173.463409 367.000031,215.426758 367.000000,257.390106
	C367.000000,266.746063 364.903198,270.029053 358.947876,269.997559
	C352.512726,269.963531 350.000092,266.288971 350.000061,256.911011
	C349.999969,225.605026 350.064575,194.298798 349.954315,162.993210
	C349.926941,155.224548 349.643646,147.428116 348.902618,139.699631
	C348.300690,133.421814 350.406494,128.597748 354.397522,123.976608
	C358.498230,119.228424 362.057648,114.012756 367.000000,109.332222
	C367.000000,116.388206 367.000000,123.444183 367.000000,131.000122
z"/>
<path fill="#F7AA4D" opacity="1.000000" stroke="none"
	d="
M220.000000,210.000000
	C220.000000,217.824387 220.124039,225.151382 219.970123,232.472534
	C219.754303,242.736832 219.386719,252.998993 218.972153,263.257538
	C218.790115,267.762054 215.547180,269.412354 211.725067,269.940552
	C207.800430,270.482941 203.823151,269.526093 203.262970,265.116699
	C202.371796,258.102112 202.341125,250.967682 202.165680,243.878525
	C202.105530,241.447876 202.958664,239.001282 202.961899,236.561417
	C203.015442,196.110886 203.000000,155.660294 203.000000,115.209709
	C203.000000,113.407532 203.000000,111.605362 203.000000,109.803185
	C203.332184,109.605072 203.664368,109.406967 203.996552,109.208855
	C207.648636,114.079384 211.061432,119.155403 215.018661,123.763916
	C219.158005,128.584488 220.207535,133.852371 220.123795,140.086472
	C219.813141,163.220703 220.000000,186.361603 220.000000,210.000000
z"/>
<path fill="#F7AA4D" opacity="1.000000" stroke="none"
	d="
M297.260712,176.210297
	C312.637024,153.503708 327.769684,131.065872 342.883759,108.615494
	C345.355408,104.944122 347.682190,101.174278 350.190338,97.528664
	C352.667084,93.928581 357.800323,92.826561 361.697113,94.911728
	C365.391418,96.888535 366.074951,100.915215 363.362244,105.087784
	C353.438751,120.351486 343.590179,135.665054 333.537567,150.843399
	C321.128357,169.579956 308.621613,188.253372 295.975098,206.830200
	C293.120972,211.022705 290.914917,216.384964 284.227386,216.029968
	C276.390106,215.613922 275.054688,209.852325 277.834839,205.078522
	C283.600098,195.178970 290.548737,185.968597 297.260712,176.210297
z"/>
<path fill="#F7AA4D" opacity="1.000000" stroke="none"
	d="
M281.673706,190.680206
	C278.640198,195.339386 275.790192,199.680618 272.543671,204.625778
	C266.100037,195.100372 260.058441,186.340118 254.192062,177.464035
	C238.921204,154.358597 223.727005,131.202499 208.503357,108.065865
	C207.873825,107.109093 207.214096,106.168953 206.640091,105.179489
	C204.794724,101.998314 203.645920,98.751747 207.211304,95.995338
	C211.373825,92.777283 215.678711,92.607292 218.615097,96.253883
	C226.847092,106.476944 235.329147,116.583008 242.598511,127.478500
	C255.782822,147.239456 268.166504,167.534805 280.851562,187.627808
	C281.358521,188.430862 281.529633,189.445953 281.673706,190.680206
z"/>
<path fill="#00C7B1" opacity="1.000000" stroke="none"
	d="
M764.004517,45.815441
	C764.662720,41.213680 768.367310,41.359272 771.178101,42.213959
	C773.408997,42.892315 775.239563,45.295254 776.895630,47.233433
	C777.472595,47.908714 776.999390,49.484585 776.999451,50.649136
	C777.000366,94.905159 776.930054,139.161469 777.108887,183.416763
	C777.126953,187.881989 775.222229,190.880188 771.581299,191.425278
	C769.283752,191.769226 766.543945,189.159058 764.031250,187.036377
	C764.041504,139.404327 764.023010,92.609886 764.004517,45.815441
z"/>
<path fill="#EFA44A" opacity="1.000000" stroke="none"
	d="
M604.686890,67.651581
	C610.243530,58.264973 615.037415,48.798168 621.091187,40.220455
	C628.172668,30.186504 641.874512,29.408401 653.057861,35.570522
	C662.578857,40.816715 667.578369,58.870338 660.674500,69.445000
	C650.294495,85.344322 641.940796,102.554428 632.423523,119.032799
	C623.732605,134.080399 614.593079,148.868256 605.744263,163.825592
	C601.100647,171.674850 596.600830,179.610886 592.135681,187.563629
	C585.827271,198.799454 576.258423,203.709457 563.793213,201.967636
	C554.926208,200.728607 547.093384,190.293045 545.763977,181.494461
	C543.705444,167.870453 552.368896,158.899277 558.012451,148.639633
	C567.148254,132.031357 576.819092,115.716492 586.329529,99.315750
	C590.272339,92.516312 594.431824,85.842728 598.400391,79.057869
	C600.528564,75.419304 602.460815,71.666107 604.686890,67.651581
M641.219604,33.993050
	C632.639771,33.583118 626.205322,37.311604 621.865234,44.512505
	C615.780396,54.608414 609.895081,64.825478 603.991638,75.029610
	C596.522156,87.940552 589.182678,100.926971 581.667419,113.811028
	C576.649841,122.413116 571.351318,130.851120 566.311401,139.440521
	C561.422546,147.772552 556.962097,156.365723 551.848999,164.554108
	C544.223938,176.765121 547.780090,190.941101 560.225952,197.730530
	C570.911316,203.559601 583.364258,196.563843 588.736816,187.595901
	C596.057556,175.375931 603.375183,163.152985 610.559814,150.852844
	C618.362976,137.493637 626.017090,124.047256 633.727173,110.633698
	C641.340149,97.389229 648.814453,84.062881 656.595154,70.917786
	C661.437378,62.737129 663.452454,54.572475 658.278687,45.859669
	C654.579041,39.629314 649.360168,35.384380 641.219604,33.993050
z"/>
<path fill="#00BEA9" opacity="1.000000" stroke="none"
	d="
M672.289795,97.311180
	C674.674927,92.990532 676.780640,88.942436 679.035767,84.979332
	C681.253723,81.081360 682.809753,81.070885 684.976807,84.856171
	C692.757141,98.446190 700.394409,112.119713 708.313782,125.627968
	C714.461365,136.113983 720.916870,146.420486 727.295898,156.769577
	C732.408875,165.064682 735.290344,173.815842 734.045105,183.758438
	C733.081360,191.453720 722.688721,201.333481 714.489136,202.007919
	C702.566162,202.988617 693.865967,198.847305 687.840149,187.907242
	C678.356934,170.689911 668.430054,153.674759 657.756714,137.178543
	C654.127625,131.569626 654.472473,128.182037 657.806702,123.023575
	C663.068726,114.882874 667.368713,106.120293 672.289795,97.311180
M688.918823,184.599228
	C690.878052,187.196579 692.860657,189.776703 694.792236,192.394440
	C701.173767,201.043060 710.780945,201.430054 718.381226,197.609573
	C732.405212,190.560074 735.994324,178.090530 727.629639,163.261932
	C722.117126,153.489822 716.335083,143.869354 710.640320,134.200623
	C701.242493,118.244446 691.817627,102.304176 682.303284,86.186516
	C674.037842,100.895309 665.908325,115.325424 657.864502,129.803116
	C657.521606,130.420151 657.704834,131.633163 658.095764,132.305176
	C660.707642,136.794388 663.500488,141.178085 666.126770,145.659271
	C673.605652,158.420837 681.032959,171.212631 688.918823,184.599228
z"/>
<path fill="#006257" opacity="1.000000" stroke="none"
	d="
M763.607849,46.029457
	C764.023010,92.609886 764.041504,139.404327 764.023804,186.676880
	C763.658630,185.989136 763.043274,184.823608 763.041931,183.657379
	C762.991272,138.343765 762.995911,93.030083 763.003540,47.716408
	C763.003662,47.225418 763.138977,46.734451 763.607849,46.029457
z"/>
<path fill="#00201D" opacity="1.000000" stroke="none"
	d="
M816.514526,47.170998
	C816.927368,93.007469 816.959595,139.055557 816.943848,185.572479
	C816.597961,185.362656 816.039062,184.683990 816.039124,184.005341
	C816.041870,138.464447 816.089844,92.923531 816.514526,47.170998
z"/>
<path fill="#00211D" opacity="1.000000" stroke="none"
	d="
M822.220337,191.519775
	C842.024109,191.108322 862.048157,191.066528 882.537537,191.085876
	C882.146240,191.431381 881.289795,191.963318 880.433044,191.963806
	C861.102234,191.974197 841.771484,191.926315 822.220337,191.519775
z"/>
<path fill="#FFFFFF" opacity="0.000000" stroke="none"
	d="
M831.021790,55.113716
	C849.666199,55.075695 868.326355,54.566784 886.948792,55.187759
	C897.067139,55.525154 905.319946,61.493355 911.422791,69.165520
	C924.737610,85.904427 927.263672,105.872963 925.799683,126.339066
	C924.950806,138.205490 921.931030,150.063339 914.532898,159.665314
	C907.353271,168.983810 897.540894,175.079895 885.575806,176.979263
	C883.330078,177.335739 881.076782,177.644440 878.181641,177.541412
	C862.049133,177.058243 846.562073,177.008820 831.041626,176.494354
	C831.012756,135.724106 831.017273,95.418915 831.021790,55.113716
z"/>
<path fill="#006358" opacity="1.000000" stroke="none"
	d="
M830.671509,55.337437
	C831.017273,95.418915 831.012756,135.724106 831.055908,176.711700
	C831.103577,177.394104 831.096741,177.830551 831.096741,177.830551
	C830.732178,176.653152 830.050659,175.476181 830.049011,174.298279
	C829.995117,135.370667 830.004822,96.442970 830.021057,57.515285
	C830.021362,56.863869 830.216858,56.212532 830.671509,55.337437
z"/>
<path fill="#00211D" opacity="1.000000" stroke="none"
	d="
M831.554260,177.898529
	C831.096741,177.830551 831.103577,177.394104 831.089233,177.176758
	C846.562073,177.008820 862.049133,177.058243 877.761414,177.471069
	C862.661621,177.878494 847.336731,177.922485 831.554260,177.898529
z"/>
<path fill="#FFFFFF" opacity="0.000000" stroke="none"
	d="
M641.649841,33.996605
	C649.360168,35.384380 654.579041,39.629314 658.278687,45.859669
	C663.452454,54.572475 661.437378,62.737129 656.595154,70.917786
	C648.814453,84.062881 641.340149,97.389229 633.727173,110.633698
	C626.017090,124.047256 618.362976,137.493637 610.559814,150.852844
	C603.375183,163.152985 596.057556,175.375931 588.736816,187.595901
	C583.364258,196.563843 570.911316,203.559601 560.225952,197.730530
	C547.780090,190.941101 544.223938,176.765121 551.848999,164.554108
	C556.962097,156.365723 561.422546,147.772552 566.311401,139.440521
	C571.351318,130.851120 576.649841,122.413116 581.667419,113.811028
	C589.182678,100.926971 596.522156,87.940552 603.991638,75.029610
	C609.895081,64.825478 615.780396,54.608414 621.865234,44.512505
	C626.205322,37.311604 632.639771,33.583118 641.649841,33.996605
z"/>
<path fill="#FFFFFF" opacity="0.000000" stroke="none"
	d="
M688.699707,184.295883
	C681.032959,171.212631 673.605652,158.420837 666.126770,145.659271
	C663.500488,141.178085 660.707642,136.794388 658.095764,132.305176
	C657.704834,131.633163 657.521606,130.420151 657.864502,129.803116
	C665.908325,115.325424 674.037842,100.895309 682.303284,86.186516
	C691.817627,102.304176 701.242493,118.244446 710.640320,134.200623
	C716.335083,143.869354 722.117126,153.489822 727.629639,163.261932
	C735.994324,178.090530 732.405212,190.560074 718.381226,197.609573
	C710.780945,201.430054 701.173767,201.043060 694.792236,192.394440
	C692.860657,189.776703 690.878052,187.196579 688.699707,184.295883
z"/>
</svg>
